<svg width="344" height="258" viewBox="0 0 344 258" fill="none" xmlns="http://www.w3.org/2000/svg">
<g opacity="0.4">
<path d="M59.1384 113.023H31.8469V144.554" fill="#CA251B"/>
<path d="M101.964 6.26184H5.24734V80.5632H101.964V6.26184Z" fill="#CA251B"/>
<path d="M43.8398 5.12516H5.24734V80.7919H32.5456V17.9986C32.5456 11.5148 37.363 5.11843 43.8398 5.11843V5.12516Z" fill="#A81E1B"/>
<path d="M301.309 59.7734H290.048C281.146 59.7734 273.93 51.8704 273.93 42.9585C273.93 34.0467 281.146 26.1437 290.048 26.1437H301.309V59.7734Z" fill="#CA251B"/>
<path d="M284.929 53.6662C284.929 44.7543 292.205 37.5307 301.309 37.5307V26.1437H290.048C281.146 26.1437 273.93 33.6835 273.93 42.5953C273.93 49.8862 278.922 56.1346 285.56 58.139C285.117 56.666 284.935 55.2939 284.935 53.6729L284.929 53.6662Z" fill="#A81E1B"/>
<path d="M284.667 112.841H247.055V123.596H284.667V112.841Z" fill="#CA251B"/>
<path d="M107.345 225.803C116.247 225.803 123.464 218.579 123.464 209.667C123.464 200.756 116.247 193.532 107.345 193.532C98.4436 193.532 91.2272 200.756 91.2272 209.667C91.2272 218.579 98.4436 225.803 107.345 225.803Z" fill="#CA251B"/>
<path d="M123.464 147.735C118.378 146.134 112.962 145.341 107.345 145.341C77.6688 145.341 53.6089 169.076 53.6089 199.209H85.8522C85.8522 174.686 101.668 154.596 123.464 147.742V147.735Z" fill="#5980CE"/>
<path d="M122.14 106.001C126.474 100.216 133.092 96.9072 140.314 96.9072H81.2095C73.9802 96.9072 67.1808 100.21 62.8405 106.001L5.24734 182.77V192.9H64.7419V182.77L122.147 106.001H122.14Z" fill="#5980CE"/>
<path d="M161.075 182.77H53.6089V198.906H161.075V182.77Z" fill="#CA251B"/>
<path d="M91.2205 182.77H53.6089V198.906H91.2205V182.77Z" fill="#A81E1B"/>
<path d="M300.792 147.735C295.699 146.134 290.29 145.341 284.673 145.341C254.997 145.341 230.937 169.076 230.937 199.209H263.18C263.18 174.686 278.996 154.596 300.792 147.742V147.735Z" fill="#5980CE"/>
<path d="M338.397 182.77H230.93V198.906H338.397V182.77Z" fill="#CA251B"/>
<path d="M268.542 182.77H230.93V198.906H268.542V182.77Z" fill="#A81E1B"/>
<path d="M187.944 118.222H53.6089L61.4228 107.79C66.65 100.815 74.8536 96.7054 83.5678 96.7054H175.118C182.206 96.7054 187.944 102.456 187.944 109.545V118.222Z" fill="#CA251B"/>
<path d="M142.679 96.9072H83.5745C74.8603 96.9072 66.6567 100.768 61.4295 107.743L53.6156 117.926H112.72L120.534 107.743C125.762 100.768 133.965 96.9072 142.679 96.9072Z" fill="#A81E1B"/>
<path d="M107.345 258C80.7459 258 59.1116 236.336 59.1116 209.715H69.613C69.613 230.733 86.5442 247.494 107.352 247.494C128.16 247.494 145.091 230.733 145.091 209.715H155.593C155.593 236.342 133.952 258 107.359 258H107.345Z" fill="#17213A"/>
<path d="M290.048 225.803C298.95 225.803 306.167 218.579 306.167 209.667C306.167 200.756 298.95 193.532 290.048 193.532C281.147 193.532 273.93 200.756 273.93 209.667C273.93 218.579 281.147 225.803 290.048 225.803Z" fill="#CA251B"/>
<path d="M107.345 231.103C95.5608 231.103 85.9731 221.619 85.9731 209.715H96.4745C96.4745 216.023 101.352 220.597 107.345 220.597C113.339 220.597 118.216 216.023 118.216 209.715H128.718C128.718 221.626 119.13 231.103 107.345 231.103Z" fill="#17213A"/>
<path d="M290.042 231.103C278.257 231.103 268.669 221.619 268.669 209.715H279.171C279.171 216.023 284.049 220.597 290.042 220.597C296.035 220.597 300.913 216.023 300.913 209.715H311.414C311.414 221.626 301.826 231.103 290.042 231.103Z" fill="#17213A"/>
<path d="M290.042 258C263.442 258 241.801 236.336 241.801 209.715H252.302C252.302 230.733 269.234 247.494 290.042 247.494C310.85 247.494 327.781 230.733 327.781 209.715H338.282C338.282 236.336 316.641 258 290.048 258H290.042Z" fill="#17213A"/>
<path d="M305.508 21.2338H295.007V64.6766H305.508V21.2338Z" fill="#17213A"/>
<path d="M134.724 113.016H112.331V123.528H134.724V113.016Z" fill="#17213A"/>
<path d="M107.433 139.805C75.4583 139.805 48.6437 166.843 48.6437 198.852V204.105H101.836V210.414H112.337V204.105H166.229V198.852C166.229 166.843 139.407 139.805 107.44 139.805H107.433ZM154.538 187.99C154.975 189.826 155.317 191.696 155.532 193.592H59.1586C59.3736 191.689 59.7162 189.826 60.153 187.99H123.531V177.477H64.0095C72.0653 161.537 88.6673 150.311 107.345 150.311C126.024 150.311 142.632 161.543 150.681 177.477H134.731V187.99H154.538Z" fill="#17213A"/>
<path d="M344 198.852C344 168.377 319.369 142.401 289.41 139.987V105.281L273.312 89.1455V56.1548C277.209 61.1118 283.256 64.2999 290.109 64.2999V53.7873C283.807 53.7873 279.238 48.9042 279.238 42.9047C279.238 36.9052 283.807 32.0222 290.109 32.0222V21.5163C279.896 21.5163 271.478 28.5919 269.294 38.0486H192.821V48.5612H241.116V137.841L212.346 172.581H199.117V183.093H217.278L251.61 141.635V48.5612H262.811V93.4972L278.909 109.633V118.625H268.407V129.138H278.909V140.128C252.961 142.866 231.286 163.245 226.637 188.689H193.191V110.668C193.191 103.055 188.75 96.4566 182.32 93.3492V85.8162H193.191V80.5632C193.191 65.7998 181.191 53.794 166.45 53.794H123.585V59.047C123.585 71.8128 132.561 82.5137 144.527 85.1772V91.4458H117.968V75.3102H107.225V15.8867C107.225 7.12949 100.103 0 91.3548 0H15.8697C7.12187 0 0 7.12949 0 15.8867V85.8162H80.1413V91.4727C71.7025 91.8022 63.7273 95.9521 58.648 102.739L54.6234 108.113H26.2502V145.98L0 181.015V198.778H42.8656V188.266H10.5014V184.512L67.0464 109.041C70.3722 104.602 75.6666 101.952 81.2162 101.952H173.995C178.799 101.952 182.703 105.866 182.703 110.668V113.016H139.636V123.528H182.703V188.689H171.832V199.202H225.723V204.105H283.813V210.414H294.315V204.105H344.007V198.852H344ZM36.7448 131.969V118.625H46.7423L36.7448 131.969ZM10.5014 32.4459H37.4503V21.94H10.5014V15.8867C10.5014 12.9205 12.9134 10.5059 15.8697 10.5059H91.3481C94.3111 10.5059 96.7164 12.9205 96.7164 15.8867V21.94H69.6331V32.4526H96.7164V75.317H10.5014V32.4459ZM107.466 91.4458H90.6359V85.8162H107.466V91.4458ZM171.825 91.4458H155.028V85.8162H171.825V91.4458ZM150.332 75.3102C143.21 75.3102 137.143 70.703 134.96 64.2999H166.457C173.579 64.2999 179.646 68.9072 181.83 75.3102H150.332ZM236.48 193.599C236.695 191.696 237.038 189.833 237.474 187.997H301.302V177.484H241.331C249.387 161.543 265.989 150.318 284.667 150.318C303.345 150.318 319.954 161.55 328.003 177.484H311.098V187.997H331.853C332.289 189.833 332.632 191.702 332.847 193.599H236.466H236.48Z" fill="#17213A"/>
</g>
</svg>
