<?xml version="1.0" encoding="UTF-8"?>
<svg id="Layer_2" data-name="Layer 2" xmlns="http://www.w3.org/2000/svg" viewBox="0 0 256 256">
  <defs>
    <style>
      .cls-1 {
        opacity: .76;
      }

      .cls-1, .cls-2 {
        fill: #fff;
      }

      .cls-3 {
        fill: #ca251b;
      }
    </style>
  </defs>
  <g id="Layer_1-2" data-name="Layer 1">
    <g>
      <rect class="cls-3" width="256" height="256" rx="36.05" ry="36.05"/>
      <g>
        <path class="cls-2" d="M212.74,182.62c.03,1.04-1.31.97-2.05,1.15-2.54.62-5.16.42-7.75.48-12.46.28-24.92.57-38.04.87-13.61.49-27.88.79-42.11,1.64-5.8.35-11.61.56-17.4.98-15.46,1.13-30.71,3.69-45.91,6.58-2.97.57-5.93,1.17-8.91,1.73-3.68.68-5.85-.13-6.84-2.51-1.2-2.88-.01-6.62,2.76-8.36,3.1-1.94,6.62-2.79,10.16-3.47,21.04-4.07,42.34-4.41,63.66-4.51,19.82-.09,39.63.45,59.43,1.52,9.92.54,19.86.79,29.73,2.03.36.05.73.03,1.07.13.96.3,2.15.69,2.19,1.75Z"/>
        <g>
          <g>
            <path class="cls-2" d="M199.34,154.81c-.86,1.93-2.43,3.26-3.72,3.55-2.32.03-5-2.53-7.67-3.62-5.47-2.21-11.44-2.23-16.51,1.72-2.89,2.06-4.98,5.1-6.69,9.68-1.27,3.66-2.1,4.33-5.76,3.6-1.43-.28-2.86-.59-4.3-.85-.79-.14-1.17-.62-.93-1.32,2.95-8.7,7.13-16.47,16.07-20.4,6.12-2.69,12.56-3.02,18.97-1.5,3.59.85,6.38,2.86,8.82,5.65,1.18,1.44,2.23,2.33,1.73,3.48Z"/>
            <path class="cls-2" d="M113.16,168.6c-3.91,2.33-7.94,4.35-13.43,4.33-3.46,0-8.09-.94-11.21-4.77-1.59-1.95-2.1-4.7-1.13-6.26.53-.85,1.11-1.18,2.13-.96,7.71,1.71,15.44,3.37,23.15,5.08.67.15,1.61.21,1.77,1.01.16.8-.7,1.23-1.28,1.57Z"/>
            <g>
              <path class="cls-2" d="M65.23,134.51c-.37-.07-.68-.14-.94-.23,0,0,.01,0,.01,0,0,0,.36.1.93.22Z"/>
              <path class="cls-2" d="M70.28,135.33c-1.1-.18-2.2-.35-3.3-.53.78.12,2.33.37,3.3.53Z"/>
              <path class="cls-2" d="M73.39,151.57c-.67-.14-1.35-.27-2.02-.4-.41-.08-.8-.17-1.15-.28,0,0,.01,0,.01,0l3.16.69Z"/>
              <path class="cls-2" d="M108.89,136.66s0,.05,0,.08c.01-.22.03-.44.05-.66,0-.22-.05-.64-.33-1.02,0,0,0,0,0-.01.35.36.4.88.31,1.62Z"/>
              <path class="cls-2" d="M111.68,159.98c-2.72-.54-5.44-1.08-8.16-1.61-3.56-.69-7.09-1.51-10.62-2.35l18.77,3.96Z"/>
              <path class="cls-2" d="M112.5,76.41c-.23.85-.6,2.31-.99,4.26.27-1.39.59-2.78.96-4.15.01-.04.02-.08.03-.11Z"/>
              <path class="cls-2" d="M202.89,77.95c-1.17-5.05-4.26-8.73-7.51-11.3,1.07.82,2.09,1.72,3.05,2.74,2.44,2.6,3.81,5.49,4.46,8.57Z"/>
              <path class="cls-2" d="M203.34,83.62c-.03,1.03-.12,2.07-.24,3.11-.8,6.56-2.76,12.67-5.46,18.5,2.59-5.73,5.28-13.47,5.71-21.61Z"/>
              <path class="cls-2" d="M70.27,99.14c-.05.13-.1.27-.15.41.05-.14.09-.28.15-.41Z"/>
              <path class="cls-2" d="M71.33,106.25s.02.02.03.03c-.95-.88-1.4-1.95-1.57-2.95.2,1.02.67,2.02,1.54,2.92Z"/>
              <path class="cls-2" d="M80.48,97.56c-.08,0-.12-.01-.12-.01,0,0-2.46-.22-4.53-.34,1.55.07,3.1.19,4.65.36Z"/>
              <path class="cls-2" d="M81.22,97.64c-.25-.03-.49-.05-.74-.08.14.01.4.04.74.08Z"/>
            </g>
          </g>
          <path class="cls-1" d="M68.37,148.84c0,.07.01.14.02.2,0-.07-.02-.13-.02-.2Z"/>
          <path class="cls-1" d="M68.39,149.06s0,0,0-.01c0,0,0,0,0,.01Z"/>
          <path class="cls-1" d="M68.39,149.06c.16,1.01.85,1.51,1.83,1.83-.14-.02-1.59-.29-1.83-1.83Z"/>
          <path class="cls-1" d="M68.42,147.89c-.03.21-.05.41-.05.59v-1.58s0,0,0,0c.11.3.11.67.05.99Z"/>
          <path class="cls-1" d="M82.83,143.97s.02,0,.05,0c-.02,0-.04,0-.06,0h0Z"/>
          <path class="cls-1" d="M88.37,140.9c-.2.38-.42.73-.66,1.04-.08.1-.16.2-.25.3-.04.05-.08.09-.13.14-.04.05-.09.09-.13.13-.09.09-.18.18-.27.25-.97.84-2.19,1.25-3.69,1.21,1.25,0,5-.39,5.48-5.06h0c.25.46.11,1.1-.35,1.98Z"/>
          <path class="cls-1" d="M92.91,156.02l-19.5-4.45c3.69.76,7.37,1.62,11.05,2.46,2.82.64,5.63,1.32,8.45,1.99Z"/>
          <path class="cls-1" d="M108.58,135.04c-.25-.25-.66-.42-1.27-.53-.73-.12-1.46-.25-2.19-.38.12,0,2.93.26,3.46.91Z"/>
          <path class="cls-1" d="M109.92,150.12c-.68-.68-1.01-1.56-1.13-2.68-.39-3.58-.37-7.15.09-10.71-.12,1.65-.24,3.29-.35,4.94,0,0,0,6.55,1.05,8.03.07.1.19.24.35.42Z"/>
          <path class="cls-1" d="M122.8,162.32l-11.12-2.34c3.71.74,7.43,1.51,11.12,2.34Z"/>
          <path class="cls-1" d="M178.47,80.41c2.29,4.35,3.24,8.83,2.99,13.34l-.05-.11c-.31-17.59-12.06-24.08-19.54-26.43,7.19,1.63,13.02,6.4,16.6,13.2Z"/>
          <path class="cls-1" d="M195.38,66.65c-2.91-2.22-6.21-3.78-9.63-5.14.28.08,5.1,1.54,9.63,5.14Z"/>
          <path class="cls-1" d="M192.47,114.79c1.9-3.1,3.64-6.27,5.16-9.53-2.55,5.62-5,9.3-5.16,9.53Z"/>
          <path class="cls-1" d="M203.35,83.33c0,.1,0,.2-.01.29.06-1.93-.06-3.83-.45-5.67.38,1.64.55,3.43.47,5.38Z"/>
          <path class="cls-1" d="M110.67,108.7c.22,1.34.49,2.67.8,3.99h0c-3.05-12.47-1.35-25.19.04-32.02-.63,3.27-1,6.59-1.24,9.93-.43,6.06-.59,12.16.4,18.11Z"/>
          <path class="cls-2" d="M202.89,77.95c-1.17-5.05-4.26-8.73-7.51-11.3,0,0,0,0,0,0-2.91-2.22-6.21-3.78-9.63-5.14,0,0,0,0,0,0,0,0-.01,0-.01,0-.28-.11-.55-.22-.83-.33-6.81-2.62-13.95-4.04-20.99-5.86-9.35-2.42-18.7-4.79-28.53-3.75-6.77.72-12.34,3.57-16.13,9.21-3.04,4.53-5.06,9.62-6.55,14.85,0,.02,0,.03-.02.05,0,.03-.02.06-.03.1-.03.1-.07.24-.11.41-.02.06-.04.13-.06.21-.23.85-.6,2.31-.99,4.26-.63,3.27-1,6.59-1.24,9.93-.43,6.06-.59,12.16.4,18.11.22,1.34.49,2.67.8,3.99,1.42,6.08,3.72,11.91,6.79,17.44,1.91,3.44,14.77,17.24,21.38,24.77-3.57,1.27-7.32,1.77-11.23,1.25-5.93-.78-11.59-2.67-17.07-5.09-.59-.26-1.06-.57-1.42-.94-.68-.68-1.01-1.56-1.13-2.68-.39-3.58-.37-7.15.09-10.71.01-.22.03-.44.05-.66,0-.22-.05-.64-.33-1.02,0,0,0,0,0-.01h0c-.25-.26-.66-.42-1.27-.53-.73-.12-1.46-.25-2.19-.38h0c-5.37-.95-10.71-2.04-16.08-2.98-3.43-.6-6.96-.74-10.34-1.52-3.21-.74-6.43-1.27-9.68-1.54-.17-.01-.35-.03-.52-.04-2.45-.19-3.84.84-4.73,3.18-.74,1.95-.75,2.65.52,3.06,0,0,0,0,0,0,0,0,.01,0,.01,0,0,0,.36.1.93.22,0,0,.01,0,.02,0,.15.03.3.05.47.08.38.06.76.12,1.14.18.02,0,.03,0,.05,0,.03,0,.05,0,.08.01.78.12,2.33.37,3.3.53.07.01.13.02.19.03.04,0,.08.01.12.02.12.02.22.04.3.05.02,0,.05,0,.07.01.02,0,.04,0,.06,0,0,0,.02,0,.02,0,.01,0,.02,0,.04,0,0,0,.01,0,.01,0,0,0,0,0,0,0l3.69.6.28.05c3.98.65,7.96,1.3,11.93,1.96.92.15,1.48.42,1.72.86.25.46.11,1.1-.35,1.98-.2.38-.42.73-.66,1.04-.08.1-.16.2-.25.3-.04.05-.08.09-.13.14-.04.05-.09.09-.13.13-.09.09-.18.18-.27.25-1.01.88-2.29,1.29-3.89,1.21-.01,0-.03,0-.04,0-.01,0-.02,0-.03,0-.02,0-.04,0-.05,0,0,0-.02,0-.03,0-.02,0-.04,0-.06,0-.24-.02-.48-.04-.73-.08-7.19-1.09-14.4-2.14-21.56-3.43-1.85-.33-3.27,1.24-3.42,2.51-.18,1.47,1.35,1.69,2.61,1.9,2.68.44,5.33.99,8.01,1.49.34.04.54.25.64.53.11.3.11.67.05.99-.03.21-.05.41-.05.59h0c0,.05,0,.09,0,.12,0,.05,0,.1,0,.14,0,.03,0,.06,0,.1.09,1.16.81,1.71,1.85,2.05,0,0,.01,0,.01,0l3.16.69h.02c3.69.76,7.37,1.63,11.05,2.46,2.82.64,5.63,1.32,8.45,1.99l18.77,3.96c3.71.74,7.43,1.51,11.12,2.34,4.75,1.07,9.48,2.24,14.17,3.59,4.19,1.21,7.35-.13,10.22-2.7,3.18-2.84,4.98-6.79,7.38-10.24,3.99-5.75,8.39-10.97,14.35-14.86,8.54-5.58,16.3-12.04,21.93-20.76.55-.85,1.08-1.7,1.61-2.55,0,0,0,0,0-.01,1.9-3.1,3.64-6.27,5.16-9.53,0,0,0-.02.01-.03,2.59-5.73,5.28-13.47,5.71-21.61.06-1.93-.06-3.83-.45-5.67ZM179.43,102.74c-4.32,11.05-12.78,17.06-22.62,22.88-1.75,1.04-2.76,1.93-3.13,3.92-.71,3.83-1.8,8.11-3.2,12.19-3.68-5.66-17.29-26.38-18.29-28.11-3.99-6.88-7.68-14.65-6.23-22.25,1.61-8.4,7.55-29.86,35.32-24.28.19.04.38.08.57.12,7.19,1.63,13.02,6.4,16.6,13.2,2.29,4.35,3.24,8.83,2.99,13.34-.16,2.99-.85,6-2.02,8.99Z"/>
          <path class="cls-1" d="M66.86,134.78c-.61-.07-1.17-.17-1.61-.26.15.03.3.05.47.08.38.06.76.12,1.14.18Z"/>
          <path class="cls-1" d="M69.02,128.09c-.17-.01-.35-.03-.52-.04-2.45-.19-3.84.84-4.73,3.18-.74,1.95-.75,2.65.52,3.06-.18-.03-1.72-.38-.79-2.39,0,0,.79-4.6,5.53-3.81Z"/>
          <path class="cls-2" d="M105.54,128.14c-4.54-.72-9.08-1.46-13.61-2.25-4.7-.83-9.39-1.73-14.08-2.61-1.57-.19-3.72-.6-5.58-.9-.7-.11-1.23-.25-.6-1.37,2.33-4.11,3.72-3.82,8.41-3.38,1.77.16,3.5.75,5.3.76,1.58,0,2.97-.38,3.85-1.84.51-.96.85-1.97.9-3.06.11-2.44-.84-3.56-3.29-3.87-2.98-.38-5.96-.75-8.94-1.12-1.24-.13-2.17-.28-3.1-.53,0,0,0,0-.01,0-.42-.12-.85-.25-1.3-.42-.9-.33-1.6-.77-2.14-1.26-.01-.01-.02-.02-.03-.03-.87-.89-1.34-1.9-1.54-2.92,0-.02,0-.04-.01-.06-.19-1.12-.04-2.14.08-2.72.07-.32.14-.61.23-.89.01-.04.02-.07.03-.11.05-.14.1-.28.15-.41,0,0,0-.01,0-.02.51-1.27,1.34-2,2.93-1.99.88,0,1.76.03,2.63.07,2.07.13,4.53.34,4.53.34,0,0,.33.03.86.09.06,0,.13.01.2.02,2.07.24,4.13.56,6.18.95,1.34.25,2.67.53,4,.84,3.87.89,6.26,3.97,8.02,7.4,3.23,6.29,5.26,13.07,7.74,19.66.74,1.95-.64,1.81-1.83,1.62Z"/>
          <path class="cls-1" d="M70.08,99.66c-.09.28-.16.58-.23.89-.12.58-.27,1.6-.08,2.72-.23-1.24-.05-2.5.31-3.61Z"/>
          <path class="cls-1" d="M73.49,107.55c.45.17.87.3,1.3.42-1.17-.29-2.55-.79-3.43-1.68.54.49,1.23.93,2.14,1.26Z"/>
          <path class="cls-1" d="M74.39,97.13c.43.02.92.04,1.44.08-.88-.04-1.75-.07-2.63-.07-1.59-.01-2.42.72-2.93,1.99.08-.21.17-.41.26-.61.97-1.9,3.86-1.38,3.86-1.38Z"/>
          <path class="cls-1" d="M87.61,98.62c-2.05-.39-4.11-.71-6.18-.95,1.53.17,4.36.52,6.18.95Z"/>
          <path class="cls-2" d="M172.15,88.61c-.82-3.41-2.44-6.39-4.85-8.91-.05,1.29-.19,2.59-.44,3.85-.75,3.85-1.49,7.71-2.6,11.46-1.03,3.5-3,6.29-6.42,7.8-.16.07.19.25-.07.33,1.52-6.62,5.12-24.7,5.61-26.68-1.37-.82-3.15-1.62-4.7-2.08-.52,3.65-4.72,22.91-5.73,28.72-1.11.05-2.17-.09-3.27-.8,1.25-5.09,5.69-28.52,5.69-28.52,0,0-3.92-.5-5.19-.34-.06.28-.17.85-.17.85,0,0-3.2,16.69-4.94,24.78-2.48-2.52-3.3-5.45-2.76-9.25.73-5.08,1.85-10.11,3.67-14.94-.79.31-1.57.67-2.33,1.08-3.21,1.74-5.74,4.21-7.58,7.35-1.96,3.35-2.89,6.93-2.27,10.84.54,3.38,1.58,6.6,2.83,9.76,2.01,5.08,4.55,9.91,7.29,14.63.81,1.4,1.67,2.78,2.53,4.21.28-.16.46-.26.63-.38,4.5-2.93,8.85-6.05,12.94-9.51,3.33-2.82,6.51-5.8,9.13-9.31,1.24-1.65,2.34-3.4,2.9-5.4.9-3.17.86-6.37.09-9.56Z"/>
        </g>
      </g>
    </g>
  </g>
</svg>