<svg width="24" height="24" viewBox="0 0 24 24" fill="none" xmlns="http://www.w3.org/2000/svg">
<path d="M9.67423 4.136C9.72933 3.55634 9.99857 3.01804 10.4293 2.62628C10.8601 2.23451 11.4215 2.01743 12.0037 2.01743C12.586 2.01743 13.1474 2.23451 13.5781 2.62628C14.0089 3.01804 14.2781 3.55634 14.3332 4.136C14.3664 4.51045 14.4892 4.87142 14.6914 5.18834C14.8935 5.50526 15.1691 5.76881 15.4947 5.95668C15.8203 6.14454 16.1864 6.2512 16.5619 6.26762C16.9375 6.28404 17.3115 6.20973 17.6522 6.051C18.1813 5.81078 18.7809 5.77602 19.3342 5.95348C19.8876 6.13095 20.3551 6.50795 20.6458 7.0111C20.9364 7.51426 21.0295 8.10757 20.9069 8.67557C20.7842 9.24357 20.4546 9.74561 19.9822 10.084C19.6746 10.2998 19.4235 10.5866 19.2501 10.92C19.0768 11.2534 18.9863 11.6237 18.9863 11.9995C18.9863 12.3753 19.0768 12.7456 19.2501 13.079C19.4235 13.4124 19.6746 13.6992 19.9822 13.915C20.4546 14.2534 20.7842 14.7554 20.9069 15.3234C21.0295 15.8914 20.9364 16.4847 20.6458 16.9879C20.3551 17.491 19.8876 17.868 19.3342 18.0455C18.7809 18.223 18.1813 18.1882 17.6522 17.948C17.3115 17.7893 16.9375 17.715 16.5619 17.7314C16.1864 17.7478 15.8203 17.8545 15.4947 18.0423C15.1691 18.2302 14.8935 18.4937 14.6914 18.8107C14.4892 19.1276 14.3664 19.4885 14.3332 19.863C14.2781 20.4427 14.0089 20.981 13.5781 21.3727C13.1474 21.7645 12.586 21.9816 12.0037 21.9816C11.4215 21.9816 10.8601 21.7645 10.4293 21.3727C9.99857 20.981 9.72933 20.4427 9.67423 19.863C9.64118 19.4884 9.51833 19.1273 9.3161 18.8103C9.11387 18.4932 8.83821 18.2296 8.51247 18.0417C8.18673 17.8538 7.8205 17.7472 7.44481 17.7309C7.06912 17.7146 6.69504 17.7891 6.35423 17.948C5.82512 18.1882 5.22556 18.223 4.67223 18.0455C4.11891 17.868 3.65141 17.491 3.36072 16.9879C3.07003 16.4847 2.97695 15.8914 3.09959 15.3234C3.22224 14.7554 3.55184 14.2534 4.02423 13.915C4.33185 13.6992 4.58296 13.4124 4.75632 13.079C4.92968 12.7456 5.02019 12.3753 5.02019 11.9995C5.02019 11.6237 4.92968 11.2534 4.75632 10.92C4.58296 10.5866 4.33185 10.2998 4.02423 10.084C3.5525 9.74544 3.22348 9.24359 3.10114 8.67598C2.97879 8.10837 3.07184 7.51554 3.36222 7.01271C3.65259 6.50988 4.11955 6.13298 4.67232 5.95524C5.2251 5.7775 5.82422 5.81163 6.35323 6.051C6.69399 6.20973 7.06798 6.28404 7.44353 6.26762C7.81909 6.2512 8.18517 6.14454 8.51077 5.95668C8.83638 5.76881 9.11193 5.50526 9.3141 5.18834C9.51627 4.87142 9.63912 4.51045 9.67223 4.136" stroke="#17213A" stroke-width="2" stroke-linecap="round" stroke-linejoin="round"/>
<path d="M12 15C13.6569 15 15 13.6569 15 12C15 10.3431 13.6569 9 12 9C10.3431 9 9 10.3431 9 12C9 13.6569 10.3431 15 12 15Z" stroke="#17213A" stroke-width="2" stroke-linecap="round" stroke-linejoin="round"/>
</svg>
