<?xml version="1.0" encoding="UTF-8"?>
<svg id="Layer_2" data-name="Layer 2" xmlns="http://www.w3.org/2000/svg" viewBox="0 0 347.77 333.34">
  <defs>
    <style>
      .cls-1 {
        fill: #17213a;
      }

      .cls-2 {
        fill: #ca251b;
      }
    </style>
  </defs>
  <g id="Layer_1-2" data-name="Layer 1">
    <g>
      <path class="cls-1" d="M340.97,131.25c-1.03,0-2.14-.24-3.32-.71-.43-.33-2.04-2.11-2.78-3.2v-32.23H12.98v19.79c-.53.95-1.83,2.59-2.41,3.08-1.16.82-2.38,1.26-3.56,1.26-3.09,0-5.67-3.03-6.04-7.04C-.1,100.21-.14,65.55,2.34,56.74c2.36-8.38,14.09-20.75,21.5-20.75h44.4l4.63-4.64V3.87c.4-.73,1.02-1.77,1.31-2.15,1.36-1.46,3.33-1.72,4.37-1.72,1.93,0,4.38.88,5.42,3.36.16.43.62,2.07.87,2.98v29.66h83.11V3.42c.43-1.04,4.02-3.41,5.62-3.42,2.19,0,5.94,2.31,6.36,3.62l-.02,32.37h83.11V4.92c.14-.01,1.36-2.53,1.89-3.25.93-1.01,2.55-1.67,4.34-1.67,1.58,0,3.09.54,4.11,1.47.07.15.99,1.63,1.61,2.68v27.2l4.63,4.64h43.66c8.76,0,20.36,12.77,22.63,22.31,2.43,10.2,2.22,51.62,1,65.89-.29,3.41-2,7.05-5.91,7.05ZM274.97,51.84v31.31h59.9v-19.85c0-3.48-4.19-9.81-5.59-11.13-2.29-2.17-8.53-4.98-12.01-4.98h-37.67l-4.64,4.64ZM84.84,83.15h178.17v-35.95H84.84v35.95ZM29.83,47.2c-6.19,0-16.85,7.59-16.85,15.36v20.6h59.89v-31.31l-4.64-4.64H29.83Z"/>
      <path class="cls-2" d="M245.43,333.34c-37.61,0-70.81-19.44-88.83-51.99-16.75-30.25-16.83-66.66-.21-97.38,16.48-30.48,46.65-50.19,80.7-52.71,2.69-.2,5.35-.29,7.97-.29,36.31,0,69.03,18.83,87.54,50.38,18.35,31.28,18.68,68.93.91,100.72-17.96,32.1-50.88,51.27-88.08,51.27ZM244.6,142.89c-2.79,0-5.61.12-8.47.38-28.9,2.56-54.67,19.64-68.92,45.69-14.6,26.67-15.06,58.39-1.24,84.87,15.38,29.47,45.72,47.78,79.19,47.78h0c30.81,0,59.07-15.48,75.6-41.42,17.71-27.8,18.89-61.52,3.15-90.21-15.93-29.04-46.33-47.08-79.33-47.08Z"/>
      <path class="cls-1" d="M98.35,316.02c-12.15,0-24.77-.45-36.96-.9-12.27-.44-24.41-.88-36.1-.88h-.61c-13.34-3.07-22.62-13.82-23.69-27.56-1.64-20.85-.89-43.36-.17-65.14.67-20.32,1.37-41.34.17-61.31-.07-1.7,2.55-4.85,4.04-5.16.61-.13,1.2-.19,1.77-.19,3.08,0,5.34,1.85,6.12,4.98l.78,130.72.43,1.06c2.58,6.42,8.13,10.51,15.64,11.54l98.21.22c2.52,1.21,4.83,3.43,3.58,7.43-.71,2.26-1.74,3.9-8.56,4.39-7.37.54-15.44.8-24.66.8Z"/>
      <path class="cls-1" d="M79.39,238.64c-12.86,0-19.66-.44-20.93-.73-3.65-.84-3.72-4.7-3.69-5.46.03-.89.42-5.39,5.42-6.23,2.74-.46,8.56-.72,15.99-.72,6.84,0,14.36.24,18.28.58,3.17.27,5.67,1.34,6.86,2.94.91,1.21,1.13,2.92.68,5.07-.36,1.23-3.02,3.73-4.3,4.02-1.71.26-8.56.53-18.31.53Z"/>
      <path class="cls-1" d="M77.55,167.54c-10.26,0-15.98-.42-17.73-.79-4.86-1-5.06-5.44-5.05-6.32,0-.77.24-4.66,4-5.34,1.71-.31,9.4-.64,20.33-.64,11.63,0,17.8.38,18.96.62,2.87.59,4.07,3.45,3.97,5.85-.06,1.58-.81,5.33-6.4,6.01-2.98.36-10.42.62-18.1.62Z"/>
      <path class="cls-1" d="M77.2,202.78c-10.79,0-17.44-.35-19.06-.68-3.13-.64-3.31-4.8-3.32-5.28,0-.48,0-4.52,3.02-5.7h41.08c2.59,1.23,3.33,4.02,3.14,6.16-.11,1.29-.75,4.36-4.28,4.86-2.57.37-11.42.64-20.59.64Z"/>
      <path class="cls-2" d="M283.39,257.04c-1.11,0-2.33-.24-3.6-.71-7.77-2.9-30.19-13.95-37.2-18.6-2.11-1.4-3.28-3.33-3.56-5.92-1.19-10.54-1.02-36.38,0-46.64.49-4.88,3.74-6.62,6.38-6.62,1.2,0,5.15.42,5.65,5.8.21,2.22.04,10.54-.11,17.89-.47,23.01-.26,24.02,1.07,26.17l.91,1.46,33.85,16.72c3.09,2.18,2.63,5.29,2.25,6.5-.59,1.91-2.38,3.95-5.64,3.95Z"/>
    </g>
  </g>
</svg>